<mxfile host="app.diagrams.net" modified="2023-04-07T23:43:49.524Z" agent="Mozilla/5.0 (Windows NT 10.0; Win64; x64) AppleWebKit/537.36 (KHTML, like Gecko) Chrome/111.0.0.0 Safari/537.36 Edg/111.0.1661.62" etag="StIczsnJ0uYxs9bJUI31" version="21.1.5" type="device">
  <diagram name="Page-1" id="VC71OVUId0dW9cEXpZz4">
    <mxGraphModel dx="1050" dy="619" grid="1" gridSize="10" guides="1" tooltips="1" connect="1" arrows="1" fold="1" page="1" pageScale="1" pageWidth="850" pageHeight="1100" math="0" shadow="0">
      <root>
        <mxCell id="0" />
        <mxCell id="1" parent="0" />
        <mxCell id="gwwihwB1vt3tvaVQCFsc-1" value="" style="image;html=1;image=img/lib/clip_art/networking/Router_128x128.png" vertex="1" parent="1">
          <mxGeometry x="190" y="440" width="80" height="80" as="geometry" />
        </mxCell>
        <mxCell id="gwwihwB1vt3tvaVQCFsc-2" value="" style="image;html=1;image=img/lib/clip_art/networking/Router_128x128.png" vertex="1" parent="1">
          <mxGeometry x="530" y="450" width="80" height="80" as="geometry" />
        </mxCell>
        <mxCell id="gwwihwB1vt3tvaVQCFsc-3" value="" style="image;aspect=fixed;perimeter=ellipsePerimeter;html=1;align=center;shadow=0;dashed=0;spacingTop=3;image=img/lib/active_directory/windows_server_2.svg;" vertex="1" parent="1">
          <mxGeometry x="42" y="700" width="96" height="120" as="geometry" />
        </mxCell>
        <mxCell id="gwwihwB1vt3tvaVQCFsc-4" value="" style="image;aspect=fixed;perimeter=ellipsePerimeter;html=1;align=center;shadow=0;dashed=0;spacingTop=3;image=img/lib/active_directory/windows_server_2.svg;" vertex="1" parent="1">
          <mxGeometry x="470" y="730" width="100" height="125" as="geometry" />
        </mxCell>
        <mxCell id="gwwihwB1vt3tvaVQCFsc-8" value="" style="image;points=[];aspect=fixed;html=1;align=center;shadow=0;dashed=0;image=img/lib/allied_telesis/computer_and_terminals/Personal_Computer_with_Server.svg;" vertex="1" parent="1">
          <mxGeometry x="240" y="728.8" width="62.400000000000006" height="62.400000000000006" as="geometry" />
        </mxCell>
        <mxCell id="gwwihwB1vt3tvaVQCFsc-9" value="" style="image;points=[];aspect=fixed;html=1;align=center;shadow=0;dashed=0;image=img/lib/allied_telesis/computer_and_terminals/Personal_Computer_with_Server.svg;" vertex="1" parent="1">
          <mxGeometry x="700" y="737.5999999999999" width="62.400000000000006" height="62.400000000000006" as="geometry" />
        </mxCell>
        <mxCell id="gwwihwB1vt3tvaVQCFsc-12" value="internet" style="ellipse;shape=cloud;whiteSpace=wrap;html=1;" vertex="1" parent="1">
          <mxGeometry x="330" y="230" width="120" height="80" as="geometry" />
        </mxCell>
        <mxCell id="gwwihwB1vt3tvaVQCFsc-16" value="" style="endArrow=classic;startArrow=classic;html=1;rounded=0;exitX=0.5;exitY=0;exitDx=0;exitDy=0;entryX=0.8;entryY=0.8;entryDx=0;entryDy=0;entryPerimeter=0;" edge="1" parent="1" source="gwwihwB1vt3tvaVQCFsc-2" target="gwwihwB1vt3tvaVQCFsc-12">
          <mxGeometry width="50" height="50" relative="1" as="geometry">
            <mxPoint x="460" y="380" as="sourcePoint" />
            <mxPoint x="510" y="330" as="targetPoint" />
          </mxGeometry>
        </mxCell>
        <mxCell id="gwwihwB1vt3tvaVQCFsc-17" value="" style="image;html=1;image=img/lib/clip_art/networking/Firewall_02_128x128.png" vertex="1" parent="1">
          <mxGeometry x="100" y="562" width="170" height="80" as="geometry" />
        </mxCell>
        <mxCell id="gwwihwB1vt3tvaVQCFsc-21" value="" style="image;html=1;image=img/lib/clip_art/networking/Firewall_02_128x128.png" vertex="1" parent="1">
          <mxGeometry x="570" y="600" width="80" height="80" as="geometry" />
        </mxCell>
        <mxCell id="gwwihwB1vt3tvaVQCFsc-26" value="" style="endArrow=classic;html=1;rounded=0;exitX=0.442;exitY=0.002;exitDx=0;exitDy=0;exitPerimeter=0;entryX=0.5;entryY=1;entryDx=0;entryDy=0;" edge="1" parent="1" source="gwwihwB1vt3tvaVQCFsc-8" target="gwwihwB1vt3tvaVQCFsc-17">
          <mxGeometry width="50" height="50" relative="1" as="geometry">
            <mxPoint x="400" y="730" as="sourcePoint" />
            <mxPoint x="450" y="680" as="targetPoint" />
            <Array as="points" />
          </mxGeometry>
        </mxCell>
        <mxCell id="gwwihwB1vt3tvaVQCFsc-27" value="" style="endArrow=classic;html=1;rounded=0;exitX=0.75;exitY=0;exitDx=0;exitDy=0;entryX=0.25;entryY=1;entryDx=0;entryDy=0;" edge="1" parent="1" source="gwwihwB1vt3tvaVQCFsc-3" target="gwwihwB1vt3tvaVQCFsc-17">
          <mxGeometry width="50" height="50" relative="1" as="geometry">
            <mxPoint x="200" y="800" as="sourcePoint" />
            <mxPoint x="450" y="680" as="targetPoint" />
          </mxGeometry>
        </mxCell>
        <mxCell id="gwwihwB1vt3tvaVQCFsc-28" value="" style="endArrow=classic;html=1;rounded=0;exitX=0.5;exitY=0;exitDx=0;exitDy=0;entryX=0.5;entryY=1;entryDx=0;entryDy=0;" edge="1" parent="1" source="gwwihwB1vt3tvaVQCFsc-17" target="gwwihwB1vt3tvaVQCFsc-1">
          <mxGeometry width="50" height="50" relative="1" as="geometry">
            <mxPoint x="400" y="730" as="sourcePoint" />
            <mxPoint x="450" y="680" as="targetPoint" />
          </mxGeometry>
        </mxCell>
        <mxCell id="gwwihwB1vt3tvaVQCFsc-30" value="" style="endArrow=classic;html=1;rounded=0;entryX=0.1;entryY=0.986;entryDx=0;entryDy=0;entryPerimeter=0;exitX=0.75;exitY=0;exitDx=0;exitDy=0;" edge="1" parent="1" source="gwwihwB1vt3tvaVQCFsc-4" target="gwwihwB1vt3tvaVQCFsc-21">
          <mxGeometry width="50" height="50" relative="1" as="geometry">
            <mxPoint x="400" y="630" as="sourcePoint" />
            <mxPoint x="450" y="580" as="targetPoint" />
          </mxGeometry>
        </mxCell>
        <mxCell id="gwwihwB1vt3tvaVQCFsc-31" value="" style="endArrow=classic;html=1;rounded=0;entryX=1;entryY=1;entryDx=0;entryDy=0;" edge="1" parent="1" source="gwwihwB1vt3tvaVQCFsc-9" target="gwwihwB1vt3tvaVQCFsc-21">
          <mxGeometry width="50" height="50" relative="1" as="geometry">
            <mxPoint x="630" y="670" as="sourcePoint" />
            <mxPoint x="680" y="620" as="targetPoint" />
          </mxGeometry>
        </mxCell>
        <mxCell id="gwwihwB1vt3tvaVQCFsc-32" value="" style="endArrow=classic;html=1;rounded=0;exitX=0.5;exitY=0;exitDx=0;exitDy=0;entryX=0.75;entryY=1;entryDx=0;entryDy=0;" edge="1" parent="1" source="gwwihwB1vt3tvaVQCFsc-21" target="gwwihwB1vt3tvaVQCFsc-2">
          <mxGeometry width="50" height="50" relative="1" as="geometry">
            <mxPoint x="585" y="590" as="sourcePoint" />
            <mxPoint x="635" y="540" as="targetPoint" />
          </mxGeometry>
        </mxCell>
        <mxCell id="gwwihwB1vt3tvaVQCFsc-34" value="" style="endArrow=classic;startArrow=classic;html=1;rounded=0;exitX=0.75;exitY=0;exitDx=0;exitDy=0;entryX=0.13;entryY=0.77;entryDx=0;entryDy=0;entryPerimeter=0;" edge="1" parent="1" source="gwwihwB1vt3tvaVQCFsc-1" target="gwwihwB1vt3tvaVQCFsc-12">
          <mxGeometry width="50" height="50" relative="1" as="geometry">
            <mxPoint x="280" y="360" as="sourcePoint" />
            <mxPoint x="330" y="310" as="targetPoint" />
          </mxGeometry>
        </mxCell>
        <mxCell id="gwwihwB1vt3tvaVQCFsc-35" value="" style="shape=flexArrow;endArrow=classic;startArrow=classic;html=1;rounded=0;exitX=1;exitY=0.5;exitDx=0;exitDy=0;entryX=0;entryY=0.5;entryDx=0;entryDy=0;" edge="1" parent="1" source="gwwihwB1vt3tvaVQCFsc-45" target="gwwihwB1vt3tvaVQCFsc-2">
          <mxGeometry width="100" height="100" relative="1" as="geometry">
            <mxPoint x="370" y="560" as="sourcePoint" />
            <mxPoint x="470" y="460" as="targetPoint" />
          </mxGeometry>
        </mxCell>
        <mxCell id="gwwihwB1vt3tvaVQCFsc-36" value="WinServer&lt;br&gt;192.168.3.101" style="text;html=1;strokeColor=none;fillColor=none;align=center;verticalAlign=middle;whiteSpace=wrap;rounded=0;" vertex="1" parent="1">
          <mxGeometry x="42" y="831" width="118" height="110" as="geometry" />
        </mxCell>
        <mxCell id="gwwihwB1vt3tvaVQCFsc-37" value="WinServer&lt;br&gt;192.168.2.101" style="text;html=1;strokeColor=none;fillColor=none;align=center;verticalAlign=middle;whiteSpace=wrap;rounded=0;" vertex="1" parent="1">
          <mxGeometry x="450" y="880" width="100" height="50" as="geometry" />
        </mxCell>
        <mxCell id="gwwihwB1vt3tvaVQCFsc-38" value="Win 10&lt;br&gt;192.168.3.2" style="text;html=1;strokeColor=none;fillColor=none;align=center;verticalAlign=middle;whiteSpace=wrap;rounded=0;" vertex="1" parent="1">
          <mxGeometry x="242.4" y="870" width="60" height="30" as="geometry" />
        </mxCell>
        <mxCell id="gwwihwB1vt3tvaVQCFsc-39" value="Win 10&lt;br&gt;192.168.2.2" style="text;html=1;strokeColor=none;fillColor=none;align=center;verticalAlign=middle;whiteSpace=wrap;rounded=0;" vertex="1" parent="1">
          <mxGeometry x="720" y="870" width="60" height="30" as="geometry" />
        </mxCell>
        <mxCell id="gwwihwB1vt3tvaVQCFsc-40" value="Captive Portal" style="text;html=1;strokeColor=none;fillColor=none;align=center;verticalAlign=middle;whiteSpace=wrap;rounded=0;" vertex="1" parent="1">
          <mxGeometry x="230" y="587" width="60" height="30" as="geometry" />
        </mxCell>
        <mxCell id="gwwihwB1vt3tvaVQCFsc-42" value="captive portal" style="text;html=1;strokeColor=none;fillColor=none;align=center;verticalAlign=middle;whiteSpace=wrap;rounded=0;" vertex="1" parent="1">
          <mxGeometry x="490" y="625" width="60" height="30" as="geometry" />
        </mxCell>
        <mxCell id="gwwihwB1vt3tvaVQCFsc-43" value="translate&lt;br&gt;10.1.2.0" style="text;html=1;strokeColor=none;fillColor=none;align=center;verticalAlign=middle;whiteSpace=wrap;rounded=0;" vertex="1" parent="1">
          <mxGeometry x="302.4" y="500" width="60" height="30" as="geometry" />
        </mxCell>
        <mxCell id="gwwihwB1vt3tvaVQCFsc-44" value="translate&lt;br&gt;10.1.3.0" style="text;html=1;strokeColor=none;fillColor=none;align=center;verticalAlign=middle;whiteSpace=wrap;rounded=0;" vertex="1" parent="1">
          <mxGeometry x="450" y="440" width="60" height="30" as="geometry" />
        </mxCell>
        <mxCell id="gwwihwB1vt3tvaVQCFsc-46" value="" style="shape=flexArrow;endArrow=classic;startArrow=classic;html=1;rounded=0;exitX=1;exitY=0.5;exitDx=0;exitDy=0;entryX=0;entryY=0.5;entryDx=0;entryDy=0;" edge="1" parent="1" source="gwwihwB1vt3tvaVQCFsc-1" target="gwwihwB1vt3tvaVQCFsc-45">
          <mxGeometry width="100" height="100" relative="1" as="geometry">
            <mxPoint x="270" y="480" as="sourcePoint" />
            <mxPoint x="530" y="490" as="targetPoint" />
          </mxGeometry>
        </mxCell>
        <mxCell id="gwwihwB1vt3tvaVQCFsc-45" value="IPsec&lt;br&gt;Tunnel" style="text;html=1;strokeColor=none;fillColor=none;align=center;verticalAlign=middle;whiteSpace=wrap;rounded=0;" vertex="1" parent="1">
          <mxGeometry x="360" y="470" width="60" height="30" as="geometry" />
        </mxCell>
        <mxCell id="gwwihwB1vt3tvaVQCFsc-47" value="pfsense&lt;br&gt;WAN: 192.168.1.145&lt;br&gt;LAN: 192.168.3.1" style="text;html=1;strokeColor=none;fillColor=none;align=center;verticalAlign=middle;whiteSpace=wrap;rounded=0;" vertex="1" parent="1">
          <mxGeometry x="50" y="450" width="110" height="90" as="geometry" />
        </mxCell>
        <mxCell id="gwwihwB1vt3tvaVQCFsc-48" value="pfsense&lt;br&gt;WAN: 192.168.1.146&lt;br&gt;Lan: 192.168.2.1" style="text;html=1;strokeColor=none;fillColor=none;align=center;verticalAlign=middle;whiteSpace=wrap;rounded=0;" vertex="1" parent="1">
          <mxGeometry x="630" y="440" width="140" height="90" as="geometry" />
        </mxCell>
      </root>
    </mxGraphModel>
  </diagram>
</mxfile>
